<svg width="45" height="53" viewBox="0 0 45 53" fill="none" xmlns="http://www.w3.org/2000/svg">
<path d="M31.5652 33.6961C33.9174 33.6961 36.2431 34.2844 38.2912 35.3974C38.6631 35.5979 39.0044 35.8368 39.3529 36.0667C42.7142 29.4869 44.488 22.5278 44.488 15.7388C44.488 15.3573 44.488 14.9634 44.4758 14.5696C44.4512 14.0158 44.0573 13.5358 43.5034 13.4127C36.0696 11.7881 29.3373 7.76345 24.045 1.78193L23.2573 0.883415C23.0234 0.612682 22.6912 0.464996 22.3342 0.464996C21.9527 0.415792 21.6573 0.600362 21.4234 0.858851L20.2173 2.1881C15.1958 7.71424 8.86958 11.5296 1.9281 13.2281L1.12807 13.425C0.586531 13.5481 0.204995 14.0281 0.192676 14.5819C-0.250384 31.8865 9.96498 44.3296 14.3712 48.8834C15.5641 50.1082 16.8941 51.3256 18.1588 52.3319C17.6844 50.9011 17.4113 49.3957 17.4113 47.8499C17.4113 40.0452 23.7605 33.6961 31.5652 33.6961Z" fill="url(#paint0_linear_119626_1772)"/>
<defs>
<linearGradient id="paint0_linear_119626_1772" x1="22.3334" y1="0.457031" x2="22.3334" y2="52.3319" gradientUnits="userSpaceOnUse">
<stop stop-color="#EF8080"/>
<stop offset="1" stop-color="#F0145A"/>
</linearGradient>
</defs>
</svg>
